<?xml version="1.0" standalone="no"?>
<!DOCTYPE svg PUBLIC "-//W3C//DTD SVG 20010904//EN"
 "http://www.w3.org/TR/2001/REC-SVG-20010904/DTD/svg10.dtd">
<svg version="1.0" xmlns="http://www.w3.org/2000/svg"
 width="508.000000pt" height="490.000000pt" viewBox="0 0 508.000000 490.000000"
 preserveAspectRatio="xMidYMid meet">

<g transform="translate(0.000000,490.000000) scale(0.100000,-0.100000)"
fill="#000000" stroke="none">
<path d="M2190 4304 c-150 -25 -239 -53 -341 -105 -75 -39 -76 -39 -145 -29
-120 17 -298 10 -321 -14 -11 -11 27 -194 63 -304 l36 -112 -16 -80 c-9 -44
-16 -111 -16 -148 0 -43 -7 -86 -20 -120 -51 -133 -30 -274 56 -388 l24 -30
-30 -23 c-17 -12 -30 -30 -30 -41 0 -11 19 -65 42 -120 l41 -101 -21 -15 c-17
-12 -22 -25 -22 -60 0 -58 32 -94 84 -94 32 0 38 -4 60 -47 l24 -48 71 0 c58
0 74 -4 92 -21 l21 -21 -38 -29 c-84 -64 -113 -138 -79 -203 33 -64 101 -65
295 -2 113 37 135 41 225 41 l100 -1 -26 -23 c-66 -58 -75 -118 -24 -166 42
-39 116 -38 296 3 85 20 194 44 242 53 112 21 194 60 262 125 44 41 59 50 77
45 95 -27 304 -22 400 10 90 29 121 101 65 148 -23 19 -33 19 -272 0 -62 -5
-89 -3 -118 9 l-37 16 0 68 c0 135 -45 244 -155 374 l-64 77 73 35 c224 111
303 360 220 692 l-16 62 35 94 c45 120 67 206 70 272 l2 52 -60 9 c-39 6 -106
5 -192 -2 l-133 -11 -45 30 c-67 45 -169 89 -275 116 -81 21 -122 26 -275 28
-99 2 -191 2 -205 -1z m470 -54 c84 -22 261 -98 274 -118 3 -5 -5 -13 -19 -16
-29 -7 -34 -26 -6 -26 10 0 81 7 157 16 128 15 266 15 281 1 8 -9 -35 -188
-64 -266 -13 -36 -42 -99 -64 -139 -43 -81 -42 -115 1 -62 l28 34 17 -75 c26
-111 24 -285 -4 -368 -64 -186 -226 -290 -477 -308 -65 -5 -84 -9 -84 -21 0
-13 14 -14 93 -9 50 4 107 11 126 17 34 9 36 8 85 -46 70 -78 120 -153 147
-221 33 -85 34 -256 1 -327 -64 -140 -167 -204 -386 -242 -50 -8 -145 -29
-211 -46 -180 -45 -258 -32 -258 42 0 43 29 70 144 131 54 29 99 59 99 66 0
20 -15 16 -76 -18 -56 -32 -56 -32 -192 -30 -136 2 -138 1 -262 -39 -69 -23
-146 -44 -172 -47 -41 -5 -50 -2 -72 20 -45 45 -29 104 45 167 42 36 47 36 60
4 9 -26 11 -27 72 -20 43 4 84 18 137 45 68 36 167 64 194 56 6 -2 39 -6 74
-10 l62 -6 0 51 0 50 83 0 c85 0 147 19 176 54 24 28 4 29 -50 2 -42 -21 -67
-26 -123 -26 -96 0 -138 14 -175 56 -58 65 -29 122 54 109 69 -10 118 2 161
39 50 43 38 68 -14 27 -41 -32 -86 -45 -125 -36 -20 5 -27 15 -32 45 -15 86
-89 206 -146 235 -81 42 -318 -14 -377 -90 -25 -31 -28 -31 -77 6 -39 29 -147
69 -189 69 -55 0 -132 132 -142 242 -5 51 -2 77 19 138 17 53 26 106 30 180 3
68 12 126 25 165 18 52 19 61 6 71 -23 18 -81 207 -98 320 -6 40 -5 42 25 48
49 10 191 7 272 -5 72 -11 74 -10 123 18 91 54 193 88 354 117 14 2 106 3 205
1 145 -2 196 -7 265 -25z m-452 -1277 l37 -16 -85 -9 c-151 -15 -237 -55 -276
-129 -13 -25 -20 -29 -58 -29 -36 0 -47 5 -60 25 -33 50 -154 105 -233 105
-35 0 -42 10 -18 30 37 31 200 -22 265 -86 l36 -34 38 46 c76 90 258 140 354
97z m99 -123 c18 -36 36 -79 39 -96 5 -28 3 -32 -20 -38 -94 -24 -83 -144 19
-201 29 -16 41 -29 43 -49 6 -49 -1 -55 -53 -43 -66 15 -171 -5 -258 -49 -38
-19 -70 -34 -72 -32 -6 6 -44 156 -75 291 -35 155 -34 184 13 223 58 49 112
63 237 61 l95 -2 32 -65z m-686 30 c49 -14 99 -49 124 -86 20 -30 102 -350 92
-360 -3 -3 -15 0 -27 6 -12 6 -46 10 -77 9 -54 -3 -56 -2 -78 35 -21 35 -22
40 -8 68 27 54 -11 138 -63 138 -18 0 -29 16 -63 96 -22 52 -41 100 -41 106 0
12 83 5 141 -12z m295 -300 c24 -102 49 -198 54 -214 6 -16 9 -30 8 -32 -2 -1
-21 -4 -43 -5 l-39 -4 -47 195 c-68 281 -66 252 -18 248 l42 -3 43 -185z
m-297 46 c19 -41 2 -76 -38 -76 -39 0 -61 24 -61 64 0 42 7 48 50 44 27 -2 38
-9 49 -32z m1716 -270 c39 0 115 4 170 9 89 7 103 6 118 -9 23 -23 22 -32 -6
-60 -33 -33 -143 -56 -264 -56 -90 0 -167 10 -180 24 -3 3 3 28 13 56 18 49
19 50 49 43 16 -4 62 -8 100 -7z"/>
<path d="M1820 3381 c0 -12 70 -64 77 -58 5 6 -57 66 -69 67 -5 0 -8 -4 -8 -9z"/>
<path d="M2348 3343 c-33 -22 -49 -43 -33 -43 11 0 85 53 85 61 0 14 -12 10
-52 -18z"/>
<path d="M1764 3268 c-22 -10 -44 -47 -44 -73 0 -8 11 -26 23 -41 28 -32 78
-36 108 -8 30 27 26 87 -7 113 -29 23 -48 25 -80 9z"/>
<path d="M2370 3248 c-38 -41 -22 -108 30 -127 41 -14 75 0 95 40 29 55 -7
109 -74 109 -18 0 -38 -9 -51 -22z"/>
<path d="M2045 3164 c-13 -10 -32 -14 -53 -10 -23 3 -32 1 -29 -7 5 -17 66
-21 93 -7 17 10 26 9 47 -5 36 -23 111 -17 115 10 3 16 1 18 -9 8 -19 -19 -59
-16 -97 7 -39 24 -41 24 -67 4z"/>
<path d="M3956 1871 c-17 -19 -17 -22 8 -68 38 -69 57 -79 94 -48 57 48 69
135 19 135 -13 0 -29 -6 -35 -12 -10 -10 -17 -10 -32 0 -27 16 -34 15 -54 -7z"/>
<path d="M4180 1871 c-5 -11 -10 -30 -10 -43 0 -27 -45 -128 -57 -128 -4 0
-51 -7 -103 -15 -107 -16 -186 -40 -193 -59 -12 -32 9 -33 138 -10 261 48 353
24 332 -85 -4 -21 -2 -31 9 -35 33 -13 63 -5 83 20 51 64 4 152 -92 174 -83
19 -81 16 -54 52 27 37 57 92 57 106 0 9 -70 42 -90 42 -5 0 -14 -9 -20 -19z"/>
<path d="M3832 1868 c-7 -7 -12 -18 -12 -25 0 -9 -8 -11 -25 -7 -51 13 -73
-36 -32 -73 23 -22 80 -53 95 -53 16 0 42 66 42 107 0 41 -14 63 -40 63 -9 0
-21 -5 -28 -12z"/>
<path d="M798 1823 c-26 -7 -28 -27 -18 -126 5 -51 10 -135 10 -188 0 -79 3
-98 16 -103 21 -8 34 1 34 25 0 24 19 23 95 -5 57 -20 60 -24 63 -57 4 -43 -8
-54 -68 -66 -29 -6 -46 -14 -48 -25 -3 -14 7 -17 55 -20 l58 -3 0 -40 0 -40
-65 0 -65 0 0 -35 0 -35 105 2 c142 2 210 11 217 29 8 23 -2 27 -67 29 -33 1
-63 4 -66 8 -3 3 -3 24 1 46 l7 41 55 0 54 0 -3 33 c-3 30 -6 32 -48 37 -43 5
-45 6 -41 35 4 42 5 42 58 47 92 9 158 74 169 168 12 104 -25 177 -111 223
-33 17 -57 21 -135 20 -64 0 -107 -6 -131 -16 -35 -15 -38 -15 -54 3 -17 19
-40 23 -77 13z m316 -77 c50 -21 96 -83 96 -129 0 -31 -7 -46 -33 -72 -30 -30
-81 -54 -92 -44 -2 3 -1 23 2 47 5 35 9 42 28 42 34 0 55 10 55 26 0 10 -12
14 -40 14 -37 0 -40 2 -40 29 0 41 -21 55 -75 47 -42 -7 -45 -9 -45 -37 0 -26
-3 -29 -31 -29 -45 0 -69 16 -69 48 0 37 11 51 46 62 46 13 161 11 198 -4z
m-122 -210 c6 -51 3 -53 -59 -45 -65 9 -78 18 -69 53 6 24 10 26 65 26 l59 0
4 -34z"/>
<path d="M1367 1734 c-3 -27 -3 -52 0 -56 2 -5 45 -8 94 -8 82 0 92 -2 114
-25 28 -27 30 -38 14 -84 -12 -35 -13 -35 -41 -20 -11 6 -31 8 -45 5 -20 -6
-24 -12 -21 -38 3 -29 8 -33 56 -46 28 -8 52 -18 52 -22 0 -5 -30 -11 -67 -15
-76 -6 -177 -24 -210 -36 -26 -10 -28 -18 -10 -42 11 -16 17 -16 82 -2 39 8
109 15 156 15 102 0 123 -13 117 -77 -3 -33 0 -38 19 -41 29 -4 57 39 56 84
-1 46 -28 83 -64 91 -36 7 -43 17 -30 42 8 14 7 22 -3 30 -12 10 -12 16 0 41
22 43 28 122 14 164 -16 50 -70 73 -189 82 l-88 7 -6 -49z"/>
<path d="M3165 1774 c-53 -8 -237 -54 -256 -64 -14 -8 -19 -6 -24 9 -8 25 -37
35 -80 27 -52 -10 -55 -20 -40 -126 16 -110 34 -292 42 -432 6 -96 16 -125 41
-110 24 15 43 156 49 354 l6 197 26 10 c14 6 63 19 108 31 152 38 259 18 300
-55 29 -53 43 -172 43 -361 0 -137 2 -153 20 -169 14 -13 28 -16 54 -11 58 11
66 33 66 181 0 206 -17 362 -44 415 -33 65 -97 98 -202 104 -43 2 -92 2 -109
0z"/>
<path d="M2275 1730 c-144 -21 -157 -26 -153 -54 3 -24 20 -25 146 -14 l72 7
0 -71 c0 -179 94 -325 222 -343 39 -6 49 -4 67 14 19 19 21 31 19 99 l-3 77
-44 3 c-44 3 -77 19 -119 56 -28 25 -62 132 -62 197 0 33 -4 49 -12 48 -7 -1
-67 -9 -133 -19z"/>
<path d="M1856 1717 c-18 -13 -18 -17 -2 -78 17 -70 36 -292 36 -436 0 -85 2
-92 22 -99 14 -4 25 -1 33 10 21 29 45 257 45 434 0 146 -2 171 -16 176 -28
11 -100 6 -118 -7z"/>
<path d="M3636 1721 c-3 -5 -1 -33 5 -62 6 -30 13 -94 17 -144 7 -84 9 -90 30
-93 17 -3 25 4 36 30 16 39 30 214 20 252 -6 24 -11 26 -54 26 -27 0 -51 -4
-54 -9z"/>
<path d="M3197 1554 c-21 -8 -72 -17 -115 -21 -59 -6 -77 -12 -80 -24 -2 -13
10 -18 63 -24 87 -9 215 3 222 21 3 8 2 25 -1 39 -7 29 -29 31 -89 9z"/>
<path d="M3842 1518 c-17 -17 -15 -74 4 -92 12 -13 39 -16 126 -16 l111 0 -6
-41 c-7 -53 -17 -62 -51 -49 -36 13 -47 -12 -17 -44 26 -28 27 -46 2 -46 -31
0 -224 -20 -249 -25 -15 -4 -22 -12 -20 -23 4 -22 56 -31 196 -31 61 -1 112
-3 112 -6 0 -27 -32 -60 -77 -80 -31 -14 -53 -30 -53 -39 0 -13 15 -16 90 -16
l89 0 18 33 c10 17 23 50 28 72 l11 40 90 6 c50 3 96 9 102 13 19 12 14 74 -7
95 -19 19 -21 19 -107 0 -48 -10 -96 -19 -105 -19 -31 0 -31 32 -1 74 40 56
74 126 69 140 -3 7 -50 16 -115 23 -61 7 -119 16 -129 21 -33 18 -97 24 -111
10z"/>
<path d="M2209 1455 c-12 -25 -25 -47 -29 -50 -4 -3 -29 14 -54 37 -33 28 -50
38 -58 30 -13 -13 2 -41 48 -92 l35 -39 -24 -38 c-13 -21 -32 -44 -41 -52 -22
-18 -21 -61 1 -61 10 0 40 22 68 50 l50 50 50 -25 c57 -29 72 -23 82 38 5 33
3 37 -23 43 -49 12 -55 22 -33 57 23 39 24 61 3 81 -28 29 -52 19 -75 -29z"/>
<path d="M2976 1405 c-3 -9 2 -46 10 -83 9 -37 19 -92 23 -122 7 -60 28 -78
46 -38 6 13 17 21 25 19 84 -23 118 -24 162 -2 25 12 50 33 56 47 23 49 11
134 -22 157 -6 4 -34 14 -62 22 -44 14 -55 14 -92 1 -35 -13 -42 -13 -53 0
-16 19 -85 19 -93 -1z m234 -55 c11 -11 20 -33 20 -50 0 -46 -31 -70 -89 -70
-63 0 -75 14 -65 77 3 26 8 51 11 56 2 4 26 7 54 7 36 0 54 -5 69 -20z"/>
<path d="M1487 1298 c-17 -13 -18 -24 -10 -148 8 -139 18 -163 47 -118 19 30
38 150 34 219 -3 49 -5 54 -28 57 -14 2 -33 -3 -43 -10z"/>
<path d="M2755 862 c-6 -4 -10 -63 -10 -140 0 -125 1 -132 20 -132 19 0 20 6
17 140 -2 77 -6 140 -10 140 -4 0 -11 -4 -17 -8z"/>
<path d="M1536 851 c-7 -11 18 -33 27 -24 4 3 7 12 7 20 0 15 -26 18 -34 4z"/>
<path d="M1308 720 c3 -120 5 -130 22 -130 17 0 19 10 22 130 l3 130 -25 0
-25 0 3 -130z"/>
<path d="M2968 720 c3 -120 5 -130 22 -130 17 0 19 10 22 130 l3 130 -25 0
-25 0 3 -130z"/>
<path d="M1673 773 c-13 -2 -23 -6 -23 -7 0 -9 35 -104 47 -125 7 -15 13 -32
13 -38 0 -7 4 -13 9 -13 17 0 24 21 13 43 -6 12 -18 46 -27 76 -15 45 -15 55
-4 62 14 9 10 9 -28 2z"/>
<path d="M1760 775 c0 -7 39 -12 49 -5 7 4 -1 7 -18 8 -17 0 -31 -1 -31 -3z"/>
<path d="M1543 763 c-9 -3 -13 -31 -13 -89 0 -80 1 -84 23 -84 21 0 22 2 19
90 -2 49 -6 90 -10 89 -4 0 -13 -3 -19 -6z"/>
<path d="M1880 752 c-15 -12 -24 -33 -27 -64 -5 -40 -2 -50 20 -72 21 -20 35
-26 69 -25 42 1 42 1 11 9 -52 12 -62 26 -61 83 0 29 4 60 9 69 12 23 7 23
-21 0z"/>
<path d="M1968 758 c7 -7 12 -25 12 -40 0 -21 5 -28 20 -28 13 0 20 7 20 20 0
22 -33 60 -52 60 -9 0 -9 -3 0 -12z"/>
<path d="M2250 755 c7 -9 10 -38 8 -78 -3 -64 6 -87 34 -87 10 0 12 18 8 73
-5 74 -20 107 -47 107 -12 0 -13 -3 -3 -15z"/>
<path d="M2390 764 c-12 -4 -14 -20 -12 -89 3 -76 5 -85 23 -85 17 0 19 8 19
90 0 50 -3 89 -7 89 -5 -1 -15 -3 -23 -5z"/>
<path d="M2480 757 c23 -11 25 -19 28 -90 2 -65 6 -77 20 -77 15 0 17 10 14
77 -2 43 -8 84 -14 91 -6 6 -25 12 -42 12 l-31 0 25 -13z"/>
<path d="M2635 750 c-9 -10 -20 -38 -22 -62 -7 -57 23 -98 70 -97 27 0 29 2
12 9 -43 17 -60 65 -42 120 9 27 19 36 42 41 30 7 30 7 -6 8 -24 1 -42 -5 -54
-19z"/>
<path d="M3202 750 c-28 -26 -37 -63 -25 -103 10 -37 44 -57 93 -56 l35 1 -35
8 c-18 5 -39 16 -46 25 -15 20 -16 102 -3 127 13 23 8 23 -19 -2z"/>
<path d="M3290 760 c0 -5 5 -12 11 -16 6 -3 8 -17 5 -30 -5 -19 -2 -24 14 -24
22 0 26 20 10 49 -10 20 -40 36 -40 21z"/>
<path d="M3397 752 c-13 -14 -15 -22 -7 -27 16 -10 33 9 28 30 -3 16 -5 15
-21 -3z"/>
<path d="M3488 693 c4 -84 13 -103 46 -102 11 0 15 3 9 6 -9 3 -13 27 -13 69
0 67 -12 104 -33 104 -9 0 -11 -21 -9 -77z"/>
<path d="M3625 762 c-5 -4 -10 -44 -10 -90 0 -78 1 -82 22 -82 19 0 22 6 25
68 5 105 -3 129 -37 104z"/>
<path d="M3696 761 c-3 -5 1 -12 10 -15 25 -10 34 -7 34 9 0 16 -35 21 -44 6z"/>
<path d="M3807 763 c-14 -4 -16 -8 -7 -18 7 -9 10 -42 8 -85 -3 -65 -1 -70 17
-70 18 0 20 6 18 78 -1 42 -2 83 -2 90 -1 12 -4 13 -34 5z"/>
<path d="M3900 757 c23 -11 25 -19 28 -90 3 -70 5 -77 23 -77 20 0 21 5 17 80
-4 88 -11 100 -63 100 l-30 0 25 -13z"/>
<path d="M2156 744 c-8 -22 -8 -24 8 -24 12 0 26 20 26 36 0 12 -29 2 -34 -12z"/>
<path d="M2172 664 c-40 -27 -22 -75 28 -73 18 1 20 3 7 6 -15 4 -18 12 -15
44 2 21 3 39 3 39 0 0 -11 -7 -23 -16z"/>
<path d="M3400 660 c-36 -36 -19 -70 35 -69 28 0 28 1 8 9 -25 10 -31 48 -11
68 9 9 9 12 0 12 -7 0 -21 -9 -32 -20z"/>
<path d="M1458 625 c-6 -30 -3 -43 8 -33 3 4 4 19 2 35 l-3 28 -7 -30z"/>
<path d="M3120 632 c0 -10 -5 -23 -12 -30 -9 -9 -8 -12 5 -12 12 0 17 8 17 30
0 17 -2 30 -5 30 -3 0 -5 -8 -5 -18z"/>
</g>
</svg>
