<?xml version="1.0" standalone="no"?>
<!DOCTYPE svg PUBLIC "-//W3C//DTD SVG 20010904//EN"
 "http://www.w3.org/TR/2001/REC-SVG-20010904/DTD/svg10.dtd">
<svg version="1.0" xmlns="http://www.w3.org/2000/svg"
 width="400.000000pt" height="400.000000pt" viewBox="0 0 400.000000 400.000000"
 preserveAspectRatio="xMidYMid meet">
<metadata>
Created by potrace 1.14, written by Peter Selinger 2001-2017
</metadata>
<g transform="translate(0.000000,400.000000) scale(0.100000,-0.100000)"
fill="#000000" stroke="none">
<path d="M1945 3802 c-2 -2 -23 -6 -46 -8 -23 -2 -67 -8 -98 -14 -31 -5 -72
-12 -91 -15 -19 -3 -46 -8 -60 -10 -14 -2 -71 -7 -127 -9 -57 -3 -119 -12
-139 -21 -20 -8 -75 -54 -121 -102 -97 -100 -103 -107 -123 -147 -8 -15 -24
-32 -35 -36 -64 -25 -80 -31 -83 -31 -1 1 -16 -6 -33 -15 -88 -45 -132 -127
-144 -269 -2 -22 -4 -40 -6 -40 -1 0 -3 -27 -4 -60 -2 -33 -3 -63 -4 -67 -1
-4 -28 -25 -61 -48 -49 -33 -60 -46 -67 -78 -4 -20 -6 -41 -5 -46 2 -4 5 -31
7 -60 2 -28 13 -78 24 -111 22 -65 27 -126 11 -154 -12 -22 -19 -160 -9 -167
4 -2 6 -13 4 -24 -2 -11 0 -20 4 -20 5 0 9 -10 9 -23 0 -27 51 -137 64 -137 4
0 8 -7 8 -15 0 -8 5 -15 12 -15 6 0 9 -3 6 -6 -3 -3 4 -15 16 -28 45 -47 76
-86 76 -97 0 -5 4 -8 9 -5 5 3 11 -4 14 -16 4 -12 9 -19 12 -16 3 3 -3 25 -14
49 -26 58 -34 81 -35 99 0 8 -5 18 -11 22 -6 5 -5 8 3 8 7 0 10 5 7 10 -7 11
-7 69 -1 130 2 19 4 40 5 46 2 24 28 10 26 -15 -1 -32 23 -103 38 -113 8 -5 7
-8 -3 -8 -9 -1 -6 -5 8 -10 13 -6 22 -18 23 -32 1 -22 1 -22 8 2 5 14 3 31 -3
39 -5 7 -11 18 -12 25 -1 6 -5 27 -9 46 -4 19 -8 83 -9 141 -1 81 2 105 11
102 7 -3 11 -8 9 -12 -2 -3 3 -22 11 -41 9 -19 15 -38 15 -42 -1 -5 2 -8 8 -8
5 0 10 -6 10 -13 0 -8 7 -29 16 -47 19 -37 26 -88 13 -96 -5 -3 -7 -10 -3 -15
3 -5 -2 -21 -11 -36 -9 -14 -12 -22 -6 -18 6 3 3 -8 -7 -27 -13 -23 -18 -51
-17 -91 0 -32 -2 -60 -6 -63 -4 -2 -6 -13 -4 -24 2 -11 -1 -20 -7 -20 -7 0 -7
-4 1 -13 6 -8 8 -17 4 -20 -8 -9 -8 -148 1 -220 4 -32 15 -64 24 -74 9 -9 15
-18 12 -19 -3 -2 3 -13 13 -24 9 -11 17 -22 17 -24 0 -7 120 -127 120 -119 0
4 5 1 11 -7 8 -11 9 -6 4 20 -11 63 -16 122 -10 140 3 10 17 20 30 23 19 3 25
0 25 -14 0 -11 5 -19 10 -19 6 0 10 -3 9 -7 -2 -15 13 -53 21 -53 5 0 14 -15
20 -34 6 -19 17 -40 25 -46 9 -8 6 7 -8 42 -12 29 -26 56 -32 60 -5 4 -7 10
-3 13 3 4 2 20 -3 37 -10 37 3 58 32 53 10 -2 19 1 19 7 0 6 2 9 6 6 3 -3 22
-2 42 4 20 5 51 11 67 13 17 2 48 7 70 10 42 6 62 9 156 20 49 6 64 3 107 -19
58 -29 59 -38 17 -130 -41 -89 -72 -114 -177 -142 -5 -1 -11 -3 -15 -4 -5 -1
-11 -2 -15 -1 -5 0 -8 -3 -8 -9 0 -5 -11 -10 -24 -10 -14 0 -28 -5 -31 -10 -4
-6 -12 -10 -18 -9 -7 1 -21 -1 -32 -5 -11 -5 -27 -10 -35 -14 -8 -3 -18 -6
-21 -6 -18 -3 -99 -69 -99 -82 0 -8 -5 -14 -10 -14 -12 0 -67 -116 -77 -162
-8 -40 -8 -421 0 -497 6 -54 25 -122 36 -131 11 -9 51 -88 51 -101 1 -26 37
-57 78 -69 23 -6 42 -15 42 -21 0 -6 4 -8 9 -5 9 6 7 -37 -4 -53 -3 -6 -2 -11
3 -11 4 0 9 -17 9 -37 1 -21 1 -50 2 -65 l1 -28 689 0 690 0 -4 72 c-6 109
-19 227 -25 236 -8 10 5 83 19 107 3 6 6 16 7 23 2 8 10 22 18 31 9 10 13 21
10 24 -4 4 -2 13 5 21 6 7 13 28 16 45 2 17 6 35 9 40 4 5 2 12 -3 16 -6 3 -8
11 -5 18 2 7 -11 38 -30 69 -31 52 -37 71 -51 154 -6 39 -32 170 -40 204 -3
14 -8 35 -11 48 -7 36 -35 102 -43 102 -4 0 -8 7 -8 15 0 8 4 15 9 15 5 0 7 4
4 8 -3 5 1 33 9 63 18 69 15 133 -6 137 -17 3 -81 -56 -74 -68 3 -5 -2 -10
-10 -14 -8 -3 -15 -11 -15 -17 0 -21 -43 -50 -65 -45 -11 3 -28 6 -38 6 -10 0
-15 4 -12 10 3 6 -1 7 -9 4 -9 -3 -16 -2 -16 3 0 5 -12 10 -26 11 -15 1 -32 6
-39 12 -6 5 -14 8 -17 5 -3 -3 -11 1 -18 10 -13 16 -14 13 36 83 19 26 28 82
14 82 -6 0 -6 9 0 26 13 33 13 34 -5 28 -9 -4 -15 0 -15 7 0 9 -3 10 -8 4 -4
-5 -11 -10 -17 -11 -22 -1 -75 -27 -75 -36 0 -5 -4 -6 -10 -3 -5 3 -10 2 -10
-4 0 -6 -7 -8 -15 -5 -8 4 -15 1 -15 -5 0 -8 -5 -8 -19 1 -10 6 -17 18 -14 25
3 7 0 13 -6 13 -6 0 -8 6 -5 14 3 8 1 17 -5 21 -18 11 5 41 49 64 22 11 40 17
40 13 0 -4 51 -8 113 -9 129 -1 210 -7 225 -17 7 -4 6 -18 -5 -44 -8 -20 -15
-38 -14 -40 1 -1 -3 -10 -8 -20 -10 -16 -10 -16 -11 1 0 10 -5 15 -10 12 -6
-4 -7 -12 -3 -18 4 -7 -1 -6 -11 2 -15 13 -19 13 -26 1 -12 -19 9 -45 24 -30
13 13 29 13 21 0 -3 -5 3 -10 14 -10 12 0 21 -4 21 -8 0 -10 70 -3 115 11 11
3 36 8 55 11 74 12 95 17 98 27 2 5 8 7 13 3 17 -10 57 45 55 76 -1 17 2 30 7
30 4 0 5 5 2 10 -3 6 0 10 7 10 9 0 9 3 -2 10 -10 6 -11 10 -2 10 6 0 12 5 12
11 0 5 -6 7 -12 3 -9 -5 -8 -2 1 9 10 13 17 15 27 6 8 -6 14 -8 14 -4 0 4 6 3
13 -3 8 -7 17 -6 30 3 15 10 17 24 15 74 l-3 60 -25 -12 c-14 -7 -26 -17 -26
-22 -2 -19 -28 -75 -35 -75 -10 0 -5 34 6 43 7 5 7 10 0 15 -15 10 -17 30 -6
51 7 12 6 22 -2 31 -7 8 -8 14 -2 16 6 3 8 44 5 110 -3 58 -2 108 2 110 4 3 5
11 1 19 -3 8 0 15 6 15 6 0 10 3 9 8 -2 7 23 63 32 72 3 3 5 10 6 15 1 26 29
105 37 105 4 0 6 4 3 9 -4 5 -2 21 4 35 6 16 6 26 0 26 -5 0 -7 6 -4 14 3 8
-2 31 -11 50 -11 22 -14 43 -10 53 5 10 7 24 6 31 -1 6 2 12 6 12 5 0 10 12
11 26 1 14 5 31 9 37 9 14 12 28 19 78 4 29 1 41 -16 57 -19 18 -21 27 -15 74
12 97 -1 168 -31 168 -7 0 -27 14 -45 31 -26 26 -30 35 -25 62 4 18 9 58 13
89 5 55 4 59 -26 85 -25 22 -31 35 -31 67 0 40 -5 46 -69 95 -25 19 -31 31
-31 62 0 60 -21 95 -52 90 -5 0 -8 3 -8 7 0 10 -50 37 -62 34 -5 -1 -8 2 -8 7
0 5 -8 12 -18 15 -10 4 -26 22 -35 42 -10 19 -22 32 -27 29 -6 -3 -10 -2 -10
4 0 5 -9 8 -20 6 -11 -2 -22 0 -24 4 -3 4 -37 7 -77 6 -63 0 -76 3 -98 23 -22
20 -34 23 -90 21 -35 -1 -91 -9 -123 -16 -46 -11 -63 -11 -81 -1 -21 11 -182
20 -192 10z m628 -1439 c-3 -7 -6 -13 -8 -13 -2 0 -5 6 -8 13 -3 8 1 14 8 14
7 0 11 -6 8 -14z m102 -13 c0 -8 -10 -16 -22 -18 -17 -3 -21 2 -20 18 1 15 7
20 22 18 11 -2 20 -10 20 -18z"/>
<path d="M2601 1584 c0 -11 3 -14 6 -6 3 7 2 16 -1 19 -3 4 -6 -2 -5 -13z"/>
</g>
</svg>
